<?xml version="1.0" standalone="no"?>
<!DOCTYPE svg PUBLIC "-//W3C//DTD SVG 20010904//EN"
 "http://www.w3.org/TR/2001/REC-SVG-20010904/DTD/svg10.dtd">
<svg version="1.0" xmlns="http://www.w3.org/2000/svg"
 width="333.000000pt" height="333.000000pt" viewBox="0 0 333.000000 333.000000"
 preserveAspectRatio="xMidYMid meet">

<g transform="translate(0.000000,333.000000) scale(0.100000,-0.100000)"
fill="#000000" stroke="none">
<path d="M1425 3305 c-184 -28 -351 -86 -546 -186 -171 -89 -168 -82 -73 -180
43 -45 106 -102 139 -126 92 -68 170 -149 203 -211 95 -180 97 -360 4 -493
-106 -151 -294 -173 -491 -57 -129 78 -287 272 -382 471 -12 27 -14 27 -27 10
-75 -100 -207 -458 -225 -610 l-5 -42 42 -9 c52 -11 68 -3 30 14 l-29 14 30
-6 c17 -4 89 -8 160 -10 96 -2 147 -9 194 -24 76 -24 202 -90 195 -102 -3 -5
-1 -7 5 -6 5 2 30 -13 54 -32 212 -168 168 -424 -73 -423 -91 1 -160 34 -248
120 -88 86 -151 136 -237 188 -46 28 -53 35 -30 30 46 -10 88 -22 108 -30 10
-4 17 -3 17 4 0 21 -214 160 -227 147 -18 -18 12 -360 43 -481 60 -241 165
-453 318 -644 103 -128 300 -304 423 -378 115 -69 139 -68 74 3 -24 25 -40 48
-37 51 6 6 136 -17 136 -24 0 -10 -24 -50 -43 -70 -11 -13 -18 -26 -14 -29 13
-13 38 7 67 53 56 88 94 212 112 365 11 95 12 97 30 81 11 -9 26 -31 34 -48
32 -69 147 -159 260 -206 l56 -24 -5 -90 c-7 -128 -9 -131 -62 -92 -29 21 -44
40 -44 55 -1 27 -29 97 -36 90 -3 -2 -1 -25 4 -51 l8 -46 -31 -4 -31 -3 31
-13 c57 -22 93 -46 139 -90 51 -49 88 -112 79 -135 -6 -15 21 -34 32 -23 10
10 -36 112 -65 141 l-30 31 15 55 c8 30 14 85 14 122 0 37 3 68 6 68 3 0 34
-7 68 -16 34 -9 101 -16 151 -17 84 0 134 11 217 47 13 6 18 -2 27 -44 18 -84
15 -125 -11 -138 -105 -54 -244 -63 -403 -27 -11 3 -5 -2 13 -10 55 -26 171
-37 248 -25 58 9 88 20 168 58 9 5 1 -153 -10 -181 -3 -8 -16 -20 -30 -27 -35
-19 -24 -22 35 -9 48 10 52 13 45 33 -7 21 -22 257 -17 265 9 13 100 -104 132
-170 l37 -77 85 33 c217 84 389 195 563 364 258 252 397 509 478 888 19 92 23
137 23 303 0 187 -17 354 -36 366 -5 2 -48 -32 -96 -77 -48 -45 -115 -100
-147 -122 -62 -42 -131 -108 -168 -163 -31 -45 -94 -84 -137 -84 -88 0 -287
45 -368 84 -58 28 -85 50 -166 139 l-97 107 0 64 c0 35 6 81 14 102 31 89 77
175 111 209 39 38 176 108 235 119 106 20 517 170 548 200 10 10 0 27 -51 87
-86 99 -195 209 -207 209 -5 0 -10 -4 -10 -10 0 -22 -78 -130 -139 -191 -83
-83 -147 -124 -234 -151 -59 -17 -74 -19 -115 -8 -71 18 -108 45 -136 102 -67
134 0 281 172 382 100 58 140 91 127 105 -15 15 -269 109 -355 132 -183 47
-460 62 -635 34z m395 -281 c-23 -170 -31 -227 -33 -234 -1 -3 3 -5 8 -6 10
-1 26 35 70 156 13 36 24 58 24 50 3 -60 -63 -525 -81 -569 -6 -15 -14 -61
-18 -104 -10 -106 -20 -115 -145 -130 -46 -6 -108 15 -175 58 -82 53 -100 84
-120 202 -11 70 -11 75 14 125 14 29 55 87 91 128 61 70 138 188 199 305 l27
50 -7 -110 c-4 -74 -3 -107 4 -100 16 15 116 223 137 282 11 29 20 51 22 49 2
-1 -6 -70 -17 -152z m-205 -1079 c22 -13 58 -39 80 -59 l40 -35 -65 -1 c-36 0
-81 -3 -100 -6 l-35 -6 -14 59 c-7 32 -15 68 -18 81 l-6 23 39 -16 c22 -9 57
-27 79 -40z m215 -125 c156 -19 291 -82 354 -165 l27 -35 -30 0 c-36 0 -84
-38 -101 -80 -13 -31 -10 -187 5 -222 4 -9 19 -20 35 -23 48 -10 118 -62 142
-104 13 -23 26 -41 30 -41 4 0 17 13 30 30 l22 30 22 -21 c23 -21 56 -91 68
-142 18 -78 -187 -172 -468 -213 -200 -30 -447 -4 -638 68 -83 30 -87 33 -81
57 l6 26 -32 -30 c-17 -16 -44 -35 -59 -41 l-27 -12 32 -1 c17 -1 34 3 37 8 4
5 29 0 56 -12 47 -20 50 -23 50 -56 0 -46 18 -111 31 -111 5 0 31 22 57 50
l47 49 106 -16 106 -16 18 -54 c25 -72 38 -81 63 -46 10 15 27 42 35 60 16 29
21 32 84 38 85 7 237 32 280 44 31 9 36 7 82 -42 l50 -52 10 28 c6 15 12 48
13 73 1 43 3 46 49 69 26 14 50 29 54 35 13 21 23 9 35 -40 15 -64 8 -91 -36
-140 -44 -48 -97 -80 -193 -114 -123 -44 -236 -60 -436 -60 -237 0 -379 26
-515 94 -65 33 -83 51 -109 111 -62 140 -46 643 24 779 60 117 245 216 445
239 107 12 126 12 220 1z m-695 -232 c-19 -29 -36 -56 -38 -61 -3 -9 -115 44
-116 55 -2 16 114 56 166 57 21 1 20 -1 -12 -51z m1111 -13 c82 -62 121 -247
75 -351 -20 -45 -23 -47 -36 -31 -11 16 -10 25 7 64 36 81 10 200 -55 262 -34
31 -90 31 -123 0 -27 -26 -31 -12 -9 31 29 56 87 66 141 25z m-39 -91 c18 -48
-44 -99 -74 -59 -19 26 -16 52 7 75 17 17 24 18 41 10 11 -6 23 -18 26 -26z
m-1183 -305 l-7 -74 -63 0 c-35 0 -64 3 -64 7 0 10 132 150 136 145 2 -2 1
-37 -2 -78z m1249 -342 c-3 -23 -9 -46 -13 -50 -4 -5 -21 10 -39 31 l-31 40
38 15 c20 8 40 13 44 11 3 -2 4 -23 1 -47z m-853 2 c0 -5 -17 -28 -37 -50 -37
-41 -38 -41 -44 -18 -4 13 -7 43 -8 66 l-1 42 45 -16 c25 -8 45 -19 45 -24z
m348 -44 c1 -1 -10 -24 -25 -50 l-27 -49 -12 31 c-7 16 -16 42 -20 57 -6 26
-6 27 37 20 24 -4 45 -8 47 -9z m-706 -197 c-5 -5 -20 -4 -36 2 -15 5 -45 10
-67 10 -21 0 -39 4 -39 8 0 12 58 65 105 96 l40 26 3 -66 c2 -37 -1 -71 -6
-76z m672 -73 l190 -1 8 -29 c4 -15 5 -32 2 -36 -13 -22 -140 -49 -230 -49
-88 0 -191 14 -205 29 -4 3 -10 28 -14 55 l-7 49 34 -8 c18 -5 118 -9 222 -10z"/>
<path d="M1470 2595 c-11 -13 -10 -14 4 -9 9 3 16 10 16 15 0 13 -6 11 -20 -6z"/>
<path d="M1620 2561 c0 -5 5 -13 10 -16 6 -3 10 -2 10 4 0 5 -4 13 -10 16 -5
3 -10 2 -10 -4z"/>
<path d="M1401 2521 c-6 -11 -7 -22 -2 -25 5 -3 11 4 14 16 8 30 1 35 -12 9z"/>
<path d="M1526 2485 c7 -17 30 -20 38 -6 3 5 -1 12 -10 15 -25 10 -34 7 -28
-9z"/>
<path d="M1715 2470 c22 -45 29 -52 20 -20 -4 14 -14 32 -22 40 -12 12 -11 7
2 -20z"/>
<path d="M1633 2404 c9 -3 17 -13 17 -22 0 -15 -2 -15 -11 -2 -9 12 -10 12 -5
-3 3 -10 6 -26 6 -35 0 -11 3 -13 11 -5 18 18 7 68 -16 70 -16 1 -16 1 -2 -3z"/>
<path d="M1516 2382 c-3 -6 -2 -21 3 -33 l8 -24 8 24 c7 24 -8 51 -19 33z"/>
<path d="M1420 2343 c0 -6 8 -17 18 -24 16 -13 16 -13 2 6 -8 11 -16 22 -17
24 -2 2 -3 0 -3 -6z"/>
<path d="M1289 1577 c-82 -44 -149 -166 -149 -273 1 -180 152 -351 293 -330
141 21 248 201 218 364 -21 115 -89 211 -173 247 -56 23 -136 19 -189 -8z
m198 -18 c52 -25 88 -66 122 -139 20 -45 25 -70 25 -136 0 -72 -4 -89 -32
-147 -18 -37 -49 -79 -69 -96 -119 -98 -279 -38 -346 133 -25 63 -29 194 -8
246 57 138 187 197 308 139z"/>
<path d="M1333 1485 c-57 -35 -95 -112 -95 -193 0 -241 270 -299 338 -73 56
186 -97 353 -243 266z m98 -34 c53 -43 13 -141 -58 -141 -72 0 -98 77 -44 131
34 34 69 37 102 10z"/>
<path d="M2213 1168 c-22 -27 -36 -89 -23 -101 18 -18 72 47 68 81 -3 29 -29
40 -45 20z"/>
<path d="M1910 1135 c-18 -21 11 -62 57 -81 74 -32 93 0 34 57 -44 41 -71 48
-91 24z"/>
<path d="M2538 3039 c-31 -17 -19 -30 12 -14 17 9 30 18 30 20 0 8 -24 5 -42
-6z"/>
<path d="M2203 2868 c-91 -65 -79 -209 22 -258 50 -24 59 -24 111 -1 101 46
100 224 -1 267 -49 20 -95 17 -132 -8z"/>
<path d="M520 2857 c0 -13 49 -47 67 -47 5 0 10 7 10 15 0 8 -2 13 -5 10 -3
-2 -16 5 -30 15 -29 23 -42 25 -42 7z"/>
<path d="M855 2541 c-54 -27 -88 -58 -79 -72 4 -8 3 -9 -5 -5 -7 5 -20 -12
-37 -48 -21 -46 -25 -69 -23 -128 4 -137 71 -218 187 -226 93 -6 166 40 214
133 25 48 34 145 19 201 -34 126 -170 197 -276 145z"/>
<path d="M2532 2306 c-23 -12 -22 -13 15 -14 40 -2 73 12 60 25 -5 4 -12 1
-17 -7 -7 -10 -10 -11 -10 -2 0 15 -18 15 -48 -2z"/>
<path d="M2333 2260 c-23 -9 -48 -46 -36 -53 12 -5 104 48 96 56 -8 9 -33 8
-60 -3z"/>
<path d="M2811 2176 c-16 -19 -4 -39 18 -31 13 5 14 4 4 -6 -16 -16 -17 -29
-2 -29 5 0 8 4 5 9 -4 5 -1 11 5 13 9 3 8 12 -3 32 -12 24 -16 26 -27 12z"/>
<path d="M2552 2138 c-28 -28 0 -58 53 -58 36 0 30 28 -11 52 -23 14 -33 15
-42 6z m22 -20 c-5 -7 -2 -9 7 -6 8 3 20 -1 27 -9 12 -12 9 -13 -15 -7 -31 7
-55 24 -34 24 7 0 9 5 5 12 -4 7 -3 8 5 4 6 -4 8 -12 5 -18z"/>
<path d="M2912 2019 c1 -13 6 -30 12 -38 8 -11 8 -13 0 -8 -7 4 -14 -5 -18
-25 -7 -37 -2 -45 19 -28 19 16 19 79 0 104 -13 17 -14 17 -13 -5z"/>
<path d="M2198 1994 c-13 -13 -9 -51 7 -64 9 -7 17 -11 19 -9 7 8 -19 81 -26
73z"/>
<path d="M2402 1967 c-23 -24 -29 -52 -13 -61 15 -9 76 38 76 59 0 29 -37 30
-63 2z m51 -5 c-4 -10 -8 -10 -13 -2 -5 8 -11 6 -20 -5 -7 -8 -17 -15 -23 -15
-5 0 -2 9 7 19 20 22 57 24 49 3z"/>
<path d="M2644 1895 c-19 -63 -20 -65 -1 -65 24 0 87 62 87 85 0 10 -8 24 -17
31 -35 26 -48 16 -69 -51z m39 33 c-5 -22 -5 -22 9 -4 14 17 15 17 21 2 5 -11
3 -15 -5 -10 -7 5 -9 2 -5 -8 7 -19 -11 -38 -35 -38 -20 0 -24 15 -7 25 6 4 8
13 5 20 -2 7 1 18 7 24 15 15 16 14 10 -11z m-13 -74 c0 -8 -19 -13 -24 -6 -3
5 1 9 9 9 8 0 15 -2 15 -3z"/>
<path d="M14 1847 c-3 -8 -4 -28 -2 -42 3 -24 11 -30 70 -50 36 -12 87 -34
112 -48 52 -29 69 -23 29 10 l-28 24 30 -15 c17 -8 46 -30 65 -50 19 -19 38
-36 43 -36 17 0 4 20 -47 72 -59 61 -120 101 -187 122 -24 7 -52 17 -61 21
-12 5 -20 2 -24 -8z"/>
<path d="M595 1591 c-62 -28 -80 -54 -80 -116 0 -43 5 -59 25 -80 35 -39 83
-57 128 -49 63 11 89 29 116 81 20 41 20 58 -3 109 -31 69 -107 91 -186 55z"/>
<path d="M1152 357 c-19 -22 -34 -70 -47 -151 -14 -90 -13 -101 18 -111 48
-14 87 -23 87 -18 0 2 -9 23 -19 47 -31 66 -46 166 -32 206 12 37 10 47 -7 27z"/>
<path d="M1578 3 c7 -3 16 -2 19 1 4 3 -2 6 -13 5 -11 0 -14 -3 -6 -6z"/>
</g>
</svg>
